<?xml version="1.0" encoding="utf-8"?>
<!-- Svg Vector Icons : http://www.onlinewebfonts.com/icon -->
<!DOCTYPE svg PUBLIC "-//W3C//DTD SVG 1.1//EN" "http://www.w3.org/Graphics/SVG/1.1/DTD/svg11.dtd">
<svg version="1.1" xmlns="http://www.w3.org/2000/svg" xmlns:xlink="http://www.w3.org/1999/xlink" x="0px" y="0px" viewBox="0 0 1000 1000" enable-background="new 0 0 1000 1000" xml:space="preserve">
<metadata> Svg Vector Icons : http://www.onlinewebfonts.com/icon </metadata>
<g><path d="M989.8,602.5c0.1-0.7,0.3-1.4,0.2-2.2c-0.1-3.9-2.4-7.3-5.9-9L865.4,535V315.3c0-4.1-2.5-7.9-6.3-9.5l-168.3-72.3V119.8c0-0.6-0.1-1.1-0.2-1.7c0.1-0.7,0.2-1.4,0.2-2.2c-0.2-3.9-2.4-7.3-5.9-9L514.2,25.8c-2.8-1.3-6.1-1.3-8.9,0L334.6,107c-0.2,0.1-0.3,0.2-0.4,0.3c-0.1,0.1-0.3,0.1-0.5,0.2c-0.3,0.2-0.5,0.4-0.8,0.6c-0.3,0.2-0.7,0.5-1,0.8c-0.4,0.3-0.7,0.7-1,1.1c-0.3,0.3-0.5,0.6-0.7,1c-0.3,0.4-0.5,0.9-0.7,1.4c-0.2,0.4-0.3,0.7-0.5,1.1c-0.2,0.5-0.2,1.1-0.3,1.6c0,0.3-0.2,0.6-0.2,0.9c0,0.1,0,0.1,0,0.2c0,0.1,0,0.1,0,0.2v114.8l-176.8,74.5c-3.9,1.6-6.4,5.4-6.4,9.6v214.5L15.9,591.4c-0.1,0.1-0.2,0.2-0.4,0.2c-0.2,0.1-0.3,0.1-0.5,0.2c-0.3,0.2-0.6,0.4-0.8,0.6c-0.4,0.3-0.7,0.5-1,0.8c-0.4,0.3-0.7,0.7-1,1.1c-0.3,0.3-0.5,0.6-0.7,1c-0.3,0.4-0.5,0.9-0.7,1.4c-0.2,0.3-0.3,0.7-0.5,1.1c-0.2,0.5-0.2,1.1-0.3,1.6c0,0.3-0.1,0.6-0.2,1c0,0.1,0,0.1,0,0.2c0,0.1,0,0.1,0,0.2v203c0,3.7,2,7.2,5.2,9l169.3,96.3c1.6,0.9,3.4,1.4,5.1,1.4c0.5,0,0.9-0.1,1.4-0.2c0.5,0.1,0.9,0.2,1.4,0.2c1.8,0,3.5-0.5,5.1-1.4l77.7-44.2c0.8,0.9,1.9,1.7,3.1,2.2L510,974.2c1.4,0.6,2.9,1,4.4,1c1.5,0,3.1-0.3,4.5-1l215.5-103.7l68.1,38.7c1.6,0.9,3.3,1.4,5.1,1.4c0.5,0,0.9-0.1,1.4-0.2c0.5,0.1,0.9,0.2,1.4,0.2c1.8,0,3.5-0.5,5.1-1.4l169.4-96.3c3.2-1.8,5.2-5.3,5.2-9V604.2C990,603.7,989.8,603.1,989.8,602.5z M670.1,236.6c-0.8,2.3-0.8,4.7,0,6.8v69.9l-148.6,84.5V222.2l148.6-84.5V236.6z M349.4,134.1L498,217.6v180.2l-148.6-84.5L349.4,134.1z M194.5,684.4l-151.4-83l148-70.4l148.4,70.6L194.5,684.4z M202.8,706.6l148.6-84.5v175.7l-148.6,84.5V706.6z M514.3,953.4L296.7,852.8l70.3-40c3.2-1.8,5.2-5.3,5.2-9V604.2c0-0.6-0.1-1.1-0.2-1.7c0.1-0.7,0.3-1.4,0.2-2.2c-0.1-3.9-2.4-7.3-5.9-9l-170.7-81.2c-2.8-1.3-6.1-1.3-8.9,0l-20.4,9.7V322.2l162.4-68.4v65.7c0,3.7,2,7.2,5.2,9l169.3,96.3c1.6,0.9,3.4,1.4,5.1,1.4c0.5,0,0.9-0.1,1.4-0.2c0.5,0.1,0.9,0.2,1.4,0.2c1.8,0,3.5-0.5,5.1-1.4l169.3-96.3c3.2-1.9,5.2-5.3,5.2-9V256l153.8,66.1v203.1l-31.4-14.9c-2.8-1.3-6.1-1.3-8.9,0l-170.7,81.2c-0.1,0.1-0.2,0.2-0.4,0.2c-0.2,0.1-0.3,0.1-0.5,0.2c-0.3,0.2-0.6,0.4-0.8,0.6c-0.3,0.3-0.7,0.5-1,0.8c-0.3,0.3-0.7,0.7-1,1.1c-0.3,0.3-0.5,0.6-0.7,1c-0.3,0.4-0.5,0.9-0.7,1.4c-0.2,0.4-0.3,0.7-0.5,1.1c-0.2,0.5-0.2,1.1-0.3,1.6c0,0.3-0.1,0.6-0.2,0.9c0,0.1,0,0.1,0,0.2c0,0.1,0,0.1,0,0.2v203c0,3.7,2,7.2,5.2,9l79.4,45.2L514.3,953.4z M797.1,882.3l-51-29c0,0,0,0,0-0.1c-1.9-4-6.1-6.2-10.3-5.8l-87.3-49.7V618.5L797.1,702V882.3z M812.3,684.4l-151.4-83l148-70.4l148.4,70.6L812.3,684.4z"/></g>
</svg>