<?xml version="1.0" encoding="utf-8"?>
<!-- Svg Vector Icons : http://www.onlinewebfonts.com/icon -->
<!DOCTYPE svg PUBLIC "-//W3C//DTD SVG 1.1//EN" "http://www.w3.org/Graphics/SVG/1.1/DTD/svg11.dtd">
<svg version="1.1" xmlns="http://www.w3.org/2000/svg" xmlns:xlink="http://www.w3.org/1999/xlink" x="0px" y="0px" viewBox="0 0 1000 1000" enable-background="new 0 0 1000 1000" xml:space="preserve">
<metadata> Svg Vector Icons : http://www.onlinewebfonts.com/icon </metadata>
<g><g transform="translate(0.000000,512.000000) scale(0.100000,-0.100000)"><path d="M4627.2,5005.7c-30.6-3.8-139.6-17.2-239-28.7C3346.3,4858.5,2312,4351.8,1539.6,3583.3C709.9,2755.4,222.4,1692.5,115.3,480.4l-11.5-128.1L794,696.4l688.3,344.1l688.3-344.1c378.5-189.3,692.1-344.1,695.9-344.1c3.8,0,11.5,45.9,19.1,103.2c17.2,156.8,101.3,422.5,187.4,598.4c325,667.2,961.6,1116.5,1703.4,1200.6l110.9,13.4l342.2,686.3l344.1,686.3l-344.1,688.3l-344.1,688.3l-101.3-1.9C4730.4,5013.3,4659.7,5007.6,4627.2,5005.7z M4923.5,3877.7c53.5-45.9,57.4-53.5,30.6-80.3c-26.8-26.8-32.5-26.8-65,1.9c-36.3,34.4-112.8,42.1-149.1,17.2c-72.6-47.8-87.9-242.8-26.8-342.2c30.6-51.6,49.7-63.1,103.2-63.1c74.6,0,112.8,36.3,103.2,99.4c-3.8,34.4-19.1,45.9-66.9,49.7c-47.8,3.8-63.1,15.3-63.1,44s13.4,36.3,74.6,36.3c42.1,0,87.9,3.8,103.2,11.5c21,7.6,28.7-17.2,38.2-110.9c11.5-110.9,7.7-124.3-34.4-162.5c-101.3-89.8-260-72.6-334.6,34.4c-51.6,72.6-76.5,210.3-53.5,309.7C4623.4,3904.4,4797.3,3982.8,4923.5,3877.7z M4451.3,3627.2c28.7-135.7,57.4-263.8,63.1-284.9c7.6-32.5,0-42.1-38.2-49.7c-40.2-7.6-66.9,13.4-185.4,151c-74.6,87.9-141.5,156.8-145.3,152.9c-3.8-5.7,9.6-84.1,30.6-177.8c38.2-170.2,34.4-196.9-30.6-198.8c-26.8,0-28.7,3.8-93.7,311.6c-44,208.4-47.8,248.5-24.8,263.8c49.7,30.6,66.9,19.1,198.8-135.7c72.6-84.1,133.8-149.1,139.6-145.3c3.8,5.7-5.7,74.6-22.9,154.9c-40.2,191.2-38.2,200.7,13.4,200.7C4397.8,3870,4403.5,3854.8,4451.3,3627.2z M3935.1,3464.7c89.9-271.5,91.8-300.2,19.1-302.1c-11.5,0-63.1,122.4-110.9,269.6c-74.6,219.9-86,273.4-65,286.8c15.3,9.6,36.3,17.2,45.9,17.2C3835.7,3736.2,3885.4,3613.9,3935.1,3464.7z M3661.7,3610c0-11.5-24.8-32.5-55.4-45.9l-55.4-22.9l93.7-210.3c103.2-233.2,109-254.3,61.2-271.5c-42.1-17.2-44-13.4-149.1,229.4l-91.8,214.1l-61.2-26.8c-65-26.8-86-19.1-86,28.7c0,19.1,57.4,55.4,158.7,99.4C3627.3,3669.3,3659.8,3669.3,3661.7,3610z M3222,3460.9c0-3.8,5.7-21,11.5-36.3c5.7-19.1-19.1-44-76.5-78.4c-97.5-57.4-101.3-68.8-57.4-135.7c38.2-59.3,47.8-59.3,145.3,1.9c61.2,40.2,80.3,44,93.7,22.9c26.8-42.1,21-49.7-63.1-103.2c-45.9-28.7-84.1-53.5-87.9-55.4c-7.7-5.7,74.6-143.4,84.1-143.4c3.8,0,47.8,24.8,97.5,55.4c87.9,55.4,118.5,53.5,120.4-7.6c0-26.8-242.8-168.2-265.7-154.9c-13.4,9.6-261.9,420.6-284.9,472.2c-3.8,7.6,53.5,49.7,124.3,91.8C3185.7,3462.8,3222,3480,3222,3460.9z M2820.5,3130.2c0-51.6,5.7-124.3,11.5-164.4l13.4-70.7l170.2-51.6l170.2-51.6l-38.2-38.2c-38.2-38.2-40.2-38.2-149.1-1.9c-61.2,21-122.4,40.1-133.8,44c-42.1,11.5-26.8-57.4,26.8-135.7c51.6-74.6,51.6-78.4-17.2-112.8c-13.4-5.7-359.4,424.4-359.4,447.4c0,7.6,17.2,22.9,36.3,32.5c30.6,17.2,47.8,5.7,109-74.6c40.1-53.5,76.5-95.6,82.2-95.6c3.8,0,1.9,70.7-3.8,156.8c-11.5,133.8-7.7,158.7,21,179.7C2812.9,3233.4,2820.5,3225.8,2820.5,3130.2z M2489.8,2780.3c59.3-34.4,74.6-65,86-170.1c3.8-38.2,26.8-53.5,116.6-84.1c114.7-38.2,126.2-51.6,80.3-89.9c-24.8-21-51.6-19.1-145.3,9.6c-86,26.8-118.5,30.6-135.7,13.4c-17.2-17.2-5.7-42.1,51.6-99.4c68.8-70.7,72.6-78.4,44-109c-30.6-28.7-42.1-21-181.6,105.2c-82.2,72.7-177.8,164.4-212.2,198.8l-63.1,66.9l105.2,97.5C2352.1,2828.1,2394.2,2839.6,2489.8,2780.3z M2222.1,2290.9c145.3-49.7,271.5-97.5,281-105.2c36.3-32.5-30.6-78.4-95.6-66.9c-53.5,11.5-66.9,3.8-112.8-57.4c-44-57.4-49.7-76.5-32.5-101.3c42.1-57.4,45.9-76.5,17.2-116.6c-24.9-36.3-36.3-26.8-212.2,202.7c-181.6,235.2-185.4,240.9-154.9,286.8c15.3,24.9,32.5,45.9,38.2,45.9C1954.5,2378.8,2076.8,2338.7,2222.1,2290.9z M2224,1776.6c3.8-3.8-1.9-24.8-15.3-45.9c-19.1-38.2-22.9-38.2-191.2,45.9c-93.7,47.8-177.8,86-185.4,86c-7.6,0,53.5-68.8,137.7-152.9c82.2-84.1,145.3-156.8,137.7-164.4c-7.7-7.6-103.2,0-214.1,15.3c-110.9,15.3-200.7,24.8-200.7,21c0-1.9,78.4-44,172.1-91.8c95.6-47.8,172.1-93.7,172.1-101.3c0-7.7-9.6-26.8-19.1-42.1c-15.3-24.8-59.3-7.6-277.2,101.3l-258.1,128.1l28.7,57.4c17.2,32.5,36.3,57.4,44,57.4c15.3,0,235.2-32.5,319.3-47.8c53.5-9.6,45.9,0-82.2,130l-141.5,141.5l30.6,61.2l30.6,59.3l254.3-126.2C2103.6,1837.8,2220.2,1778.5,2224,1776.6z"/><path d="M2304.3,2675.2l-45.9-47.8l65-66.9l65-66.9l44,42.1c53.5,49.7,57.4,112.8,9.6,154.8C2392.3,2734.4,2356,2730.6,2304.3,2675.2z"/><path d="M2053.9,2212.5c21-30.6,57.4-78.4,82.2-107.1l44-53.5l44,59.3c24.9,32.5,42.1,63.1,38.2,65c-9.6,7.6-227.5,87.9-239,87.9C2019.5,2264.1,2032.8,2241.2,2053.9,2212.5z"/><path d="M5573.5,4328.9l344.1-688.3l-344.1-688.3c-189.3-378.5-344.1-692.1-344.1-695.9c0-3.8,45.9-11.5,103.2-19.1c162.5-19.1,422.5-101.3,613.7-195c629-311.6,1061.1-902.4,1170-1604l30.6-202.7l686.4-344.1l684.4-342.2l690.2,346L9900,239.5l-13.4,185.4c-87.9,1217.8-579.3,2307.6-1426.2,3158.3c-688.3,690.2-1548.6,1147.1-2533.2,1347.8c-116.6,22.9-602.2,84.1-684.4,86C5235.2,5017.1,5384.3,4707.4,5573.5,4328.9z M7477.7,3017.4c45.9-30.6,103.3-118.5,103.3-158.7c0-44-68.8-28.7-105.2,26.8c-45.9,65-135.7,87.9-154.9,38.2c-7.7-15.3,5.7-72.6,28.7-124.3c55.4-128.1,51.6-183.5-15.3-250.4c-63.1-61.2-110.9-68.8-193.1-26.8c-114.7,59.3-177.8,204.6-97.5,225.6c26.8,5.7,40.1-3.8,47.8-36.3c26.8-107.1,143.4-158.7,183.5-84.1c15.3,30.6,11.5,59.3-19.1,126.2c-21,49.7-38.2,116.6-38.2,152.9C7217.7,3025,7368.7,3088.1,7477.7,3017.4z M7860.1,2625.4l42.1-40.2l-116.6-183.5c-63.1-103.2-135.8-218-160.6-258.1c-44-70.7-47.8-72.7-82.2-42.1c-34.4,32.5-36.3,36.3-5.7,86c28.7,51.6,28.7,55.4-22.9,122.4c-57.4,74.6-68.8,80.3-128.1,47.8c-32.5-17.2-45.9-13.4-78.4,19.1l-40.2,38.2l210.3,97.5c114.7,51.6,235.2,109,265.8,122.4C7818,2671.3,7810.4,2671.3,7860.1,2625.4z M8135.4,2262.2c0-9.6-181.6-135.7-388.1-267.7c-9.6-7.6,3.8-44,32.5-86c57.4-84.1,61.2-112.8,21-130c-19.1-5.7-53.5,26.8-105.1,103.2c-42.1,61.2-76.5,120.4-76.5,128.1c0,7.6,107.1,86,235.1,170.2c206.5,137.6,235.2,152.9,258.1,126.2C8123.9,2289,8135.4,2269.8,8135.4,2262.2z M8456.6,1650.4c-42.1-26.8-51.6-21-101.3,78.4c-26.8,53.5-53.5,95.6-59.3,95.6c-26.8,0-122.4-61.2-122.4-78.4c0-9.6,17.2-53.5,38.2-95.6c22.9-42.1,34.4-84.1,28.7-93.7c-24.8-42.1-68.8-15.3-109,66.9c-47.8,95.6-51.6,97.5-130,57.4c-68.8-36.3-68.8-42.1-15.3-152.9c36.3-76.5,38.2-89.9,15.3-105.2c-15.3-9.6-32.5-19.1-38.2-19.1s-42.1,65-82.2,143.4l-70.7,143.4l263.8,131.9l261.9,131.9l72.6-143.4C8466.1,1696.3,8477.6,1661.9,8456.6,1650.4z M8542.6,1442c59.3-45.9,95.6-149.1,78.4-217.9c-11.5-51.6-22.9-57.4-68.8-40.1c-17.2,7.6-24.9,30.6-19.1,65c11.5,76.5-26.8,139.6-78.4,131.9c-44-5.7-61.2-44-80.3-175.9c-17.2-109-86-168.2-185.4-160.6c-68.8,5.7-87.9,17.2-126.2,72.6c-57.4,86-55.4,239,5.7,239c32.5,0,38.2-13.4,40.1-80.3c0-87.9,32.5-139.6,84.1-139.6c49.7,0,72.6,38.2,87.9,152.9C8303.6,1463.1,8426,1533.8,8542.6,1442z"/><path d="M7640.2,2491.6l-122.4-57.4l53.5-55.4l53.5-57.4l42.1,63.1c78.4,114.7,109,166.3,103.3,164.4C7766.4,2549,7707.1,2522.2,7640.2,2491.6z"/><path d="M3774.5,690.7c-118.5-44-206.5-109-261.9-191.2c-91.8-135.7-109-200.7-109-395.7c1.9-149.1,9.6-196.9,45.9-271.5c145.3-300.2,541-395.8,785.8-189.3l63.1,51.6l-70.7,78.4l-70.7,80.3l-68.8-47.8c-89.8-61.2-227.5-63.1-302.1-3.8c-174,135.7-162.5,537.2,17.2,648.1c76.5,45.9,195,45.9,273.4,0l61.2-38.2l70.7,78.4l70.7,78.4l-45.9,36.3C4105.3,706,3910.3,742.3,3774.5,690.7z"/><path d="M786.3,350.4L100,6.3l13.4-185.4C201.3-1397,690.8-2482.9,1535.8-3331.8c694-695.9,1548.6-1152.8,2537-1353.6c116.6-22.9,602.2-84.1,684.4-86c7.7,0-141.5,309.7-330.7,688.3l-344.1,688.3l346,690.2c189.3,380.4,342.2,692.1,338.4,695.9c-3.8,1.9-70.7,13.4-149.1,26.8c-474.1,76.5-975,370.9-1280.9,757.1c-258.1,323.1-424.4,722.7-468.4,1124.2l-13.4,110.9l-686.3,342.2c-376.6,189.3-688.3,344.1-690.2,342.2C1474.6,694.5,1164.9,539.6,786.3,350.4z M1317.8-404.8c11.5-51.6,21-65,45.9-57.4c63.1,17.2,443.5,74.6,451.2,66.9c3.8-3.8,11.5-24.9,15.3-44c5.7-34.4-19.1-42.1-233.2-80.3c-131.9-24.9-242.8-44-246.6-45.9c-3.8,0,0-30.6,5.7-66.9c11.5-61.2,9.6-66.9-32.5-66.9c-42.1,0-47.8,11.5-68.8,160.6c-13.4,89.8-19.1,172.1-11.5,181.6C1268.1-314.9,1306.4-337.9,1317.8-404.8z M1883.7-689.7c15.3-42.1,7.6-57.3-66.9-126.2c-47.8-44-86-95.6-86-114.7c0-44,7.6-44,122.4-5.7c99.4,34.4,97.5,34.4,114.7-22.9c11.5-36.3-9.6-45.9-260-124.3c-151-45.9-277.2-84.1-282.9-84.1c-13.4,0-74.6,204.6-74.6,254.3c-1.9,24.8,22.9,68.8,53.5,101.3c63.1,63.1,174,76.5,242.8,28.7c36.3-26.8,45.9-22.9,124.3,57.3c45.9,45.9,86,84.1,87.9,84.1C1862.7-641.9,1874.2-662.9,1883.7-689.7z M2067.3-1223.1c130-130,72.6-294.4-135.7-393.8c-164.4-80.3-326.9-34.4-372.8,105.2c-57.4,172.1,120.4,351.8,351.8,353.7C1990.8-1158.1,2009.9-1165.7,2067.3-1223.1z M2136.1-1789l72.6-78.4l87.9,61.2c82.2,55.4,87.9,57.3,112.8,24.9c13.4-21,21-42.1,17.2-49.7c-9.6-15.3-460.8-321.2-474.1-321.2c-21,0-145.3,223.7-145.3,263.8c0,26.8,26.8,72.6,65,110.9C1965.9-1683.8,2038.6-1687.6,2136.1-1789z M2430.5-2163.7l68.8-68.8l72.6,70.7c72.6,70.7,133.8,80.3,133.8,21c0-28.7-388.1-393.8-418.7-393.8c-9.6,0-53.5,44-95.6,97.5c-86,109-101.3,189.3-44,258.1C2233.6-2073.8,2333-2068.1,2430.5-2163.7z M2923.8-2322.4c97.5-65,131.9-168.2,86-256.2c-22.9-42.1-263.8-338.4-275.3-338.4c-26.8,0-66.9,26.8-66.9,45.9c0,11.5,61.2,93.7,133.8,179.7c137.7,166.3,156.8,214.1,101.3,275.3c-55.4,61.2-110.9,42.1-210.3-74.6c-204.6-240.9-202.6-239-242.8-210.3c-36.3,26.8-32.5,34.4,91.8,183.5C2744-2274.6,2805.2-2244,2923.8-2322.4z M3331-2612.9c34.4-21,76.5-65,91.8-95.6c26.8-49.7,26.8-55.4-7.6-74.6c-47.8-24.8-59.3-24.8-59.3,3.8c0,38.2-80.3,110.9-126.2,110.9c-22.9,0-53.5-13.4-66.9-30.6c-21-26.8-17.2-47.8,36.3-141.5c34.4-61.2,61.2-133.8,61.2-162.5c0-72.6-78.4-143.4-160.6-143.4c-118.5,0-269.6,174-168.2,195c19.1,3.8,45.9-13.4,65-45.9c24.9-38.2,49.7-53.5,89.9-53.5c80.3,0,87.9,45.9,21,162.5c-72.6,126.2-74.6,198.8-7.6,265.8C3162.7-2561.3,3241.1-2557.5,3331-2612.9z"/><path d="M1472.7-877c-26.8-21.1-30.6-40.2-21-95.6c15.3-78.4,21-80.3,130-47.8c66.9,19.1,74.6,26.8,63.1,70.7C1619.9-852.2,1549.2-823.5,1472.7-877z"/><path d="M1765.2-1291.9c-126.2-66.9-166.3-172.1-91.8-239c55.4-49.7,193.1-30.6,281,42.1c84.1,66.9,105.2,118.6,74.6,179.7C1998.4-1246,1866.5-1238.4,1765.2-1291.9z"/><path d="M1944.9-1838.7c-51.6-36.3-53.5-84.1-5.7-143.4l36.3-44l80.3,53.6c78.4,51.6,80.3,53.5,44,93.7C2032.8-1798.5,2009.9-1792.8,1944.9-1838.7z"/><path d="M2241.2-2224.8c-44-49.7-40.1-105.2,11.5-152.9l44-42.1l65,66.9l65,66.9l-45.9,47.8C2327.3-2180.9,2283.3-2177.1,2241.2-2224.8z"/><path d="M4464.7,122.9v-573.5H4589h124.3l1.9,63.1c1.9,32.5,3.8,126.2,5.7,204.6l1.9,143.4l70.7,5.7l68.8,5.7l110.9-210.3l109-212.2h143.4c105.2,0,139.6,5.7,131.9,24.8c-5.8,11.5-61.2,112.8-124.3,223.7L5116.6-1.4l66.9,53.5c91.7,76.5,122.4,145.3,122.4,281c0,131.9-28.7,202.7-112.8,273.4c-78.4,65-210.3,89.9-489.4,89.9h-239V122.9z M4986.6,465.1c57.4-30.6,70.7-53.5,70.7-133.8c0-101.3-63.1-151-208.4-164.4l-116.6-11.5v166.3v164.4h107.1C4896.8,486.1,4963.7,476.6,4986.6,465.1z"/><path d="M5544.9,671.6c-5.7-13.4-7.6-267.7-5.7-567.8l5.7-544.9l122.4-5.7l122.4-5.7l-11.5,359.4c-7.7,196.9-17.2,380.4-22.9,407.2c-7.6,26.8,34.4-72.6,91.8-219.9c162.5-422.5,175.9-449.3,229.4-449.3c42.1,0,55.4,24.9,143.4,254.3c55.4,137.7,112.8,294.4,130,344.1c17.2,49.7,34.4,87.9,38.2,84.1c3.8-3.8-1.9-105.2-13.4-225.6c-9.6-120.4-17.2-290.6-13.4-380.4l5.7-162.5l120.4-5.7l118.5-5.7v575.4v575.5l-137.7-5.7l-137.7-5.7L6206.3,337c-70.7-198.8-130-338.4-137.6-325c-7.6,13.4-66.9,174-131.9,355.6l-120.4,328.8h-131.9C5596.5,696.4,5550.6,688.8,5544.9,671.6z"/><path d="M7106.8-251.9c-13.4-78.4-45.9-210.3-72.6-290.6c-260-776.2-911.9-1324.9-1718.7-1451.1l-202.7-30.6l-344.1-686.4l-342.2-684.4l346-690.2l344.1-692.1l185.4,13.4c873.7,63.1,1699.6,340.3,2393.6,801.1c1231.2,822.1,2017,2112.6,2169.9,3569.4c15.3,141.5,28.7,263.8,28.7,273.4c0,7.7-309.7-141.5-688.3-330.7l-688.3-344.1l-688.3,344.1c-378.5,189.3-690.2,344.1-694,344.1S7118.3-171.6,7106.8-251.9z M8211.9-1301.4c137.7-68.8,248.5-128.1,248.5-133.8c0-24.8-135.7-277.2-149.1-277.2c-7.7,0-24.8,7.7-38.2,17.2c-21,13.4-17.2,34.4,22.9,112.8l49.7,97.5l-55.4,30.6c-80.3,40.1-84.1,38.2-131.9-57.3c-44-89.9-53.5-95.6-95.6-68.8c-21,13.4-17.2,34.4,22.9,110.9l47.8,95.6l-114.7,53.5c-61.2,30.6-112.8,57.4-112.8,61.2c0,15.3,40.1,82.2,47.8,82.2C7959.5-1177.2,8076.1-1232.6,8211.9-1301.4z M8007.3-1676.2c128.1-86,235.1-158.7,239-160.6c15.3-11.5-160.6-258.1-183.5-258.1c-47.8,0-44,55.4,7.6,133.8l53.5,80.3l-55.4,45.9c-32.5,24.9-61.2,45.9-66.9,45.9s-34.4-38.2-63.1-86c-59.3-91.8-65-95.6-107.1-68.8c-22.9,15.3-22.9,24.8,3.8,66.9c101.3,156.8,97.5,137.6,26.8,181.6c-36.3,22.9-70.7,40.1-76.5,40.1s-28.7-28.7-49.7-61.2c-21-34.4-45.9-74.6-55.4-87.9c-17.2-24.8-80.3-11.5-80.3,17.2c0,21,152.9,265.7,164.4,265.7C7770.2-1521.3,7879.2-1592.1,8007.3-1676.2z M7756.9-2029.8c118.5-101.3,217.9-189.3,219.9-196.9c1.9-5.7-42.1-63.1-97.5-126.2c-89.8-99.4-107.1-110.9-133.8-87.9c-26.8,22.9-22.9,34.4,38.2,109c74.6,89.8,70.7,116.6-17.2,162.5c-30.6,17.2-45.9,7.7-103.3-59.3c-61.2-70.7-70.7-76.5-97.5-49.7c-26.8,24.8-22.9,38.2,40.1,112.8l66.9,82.2l-65,53.5l-66.9,53.5l-74.6-84.1c-65-72.6-76.5-78.4-103.2-53.5c-24.9,24.8-17.2,42.1,70.7,147.2c55.4,65,101.3,118.5,103.2,118.5C7537-1846.3,7636.4-1928.5,7756.9-2029.8z M7468.2-2354.8c99.4-112.8,179.7-214.1,179.7-227.5c0-28.7-149.1-154.8-202.6-172.1c-74.6-24.8-172.1,9.6-256.2,87.9c-154.9,143.4-160.6,275.3-15.3,422.5c49.7,51.6,95.6,91.8,101.3,91.8C7282.7-2152.2,7368.7-2244,7468.2-2354.8z M7064.8-2700.9c78.4-124.3,145.3-233.2,149.1-244.7c5.7-26.8-208.4-162.5-258.1-162.5c-21,0-63.1,19.1-91.8,40.2c-42.1,34.4-49.7,53.5-44,114.7c5.7,65,1.9,74.6-32.5,74.6c-91.8,0-168.2,131.9-128.1,221.8c21,44,202.7,177.8,242.8,177.8C6913.7-2479.1,6986.4-2578.5,7064.8-2700.9z M6613.6-2964.7c17.2-126.2,36.3-252.4,42-279.1c7.7-40.2,0-53.6-44-72.7c-59.3-26.8-34.4-49.7-351.8,305.9c-110.9,126.2-110.9,126.2-66.9,147.2c38.2,17.2,51.6,13.4,87.9-24.9l42.1-45.9l86,42.1c78.4,38.2,84.1,45.9,78.4,103.3c-5.7,45.9,1.9,65,32.5,78.4C6571.5-2685.6,6577.3-2699,6613.6-2964.7z M6103.1-2974.3c120.4-72.6,183.5-271.5,131.9-407.2c-49.7-133.8-175.9-181.6-300.2-116.6c-55.4,28.7-57.4,30.6-26.8,65c28.7,32.5,34.4,32.5,84.1,3.8c49.7-28.7,57.4-28.7,101.3,0c82.2,53.5,82.2,212.2,0,336.5c-61.2,95.6-191.2,88-223.7-13.4c-7.6-24.8-22.9-32.5-47.8-26.8c-45.9,11.5-47.8,28.7-7.6,103.2C5864.1-2932.2,5994.1-2907.4,6103.1-2974.3z M5726.5-3272.5c21-135.8,44-265.8,47.8-288.7c9.6-36.3,1.9-44-38.2-44c-53.5,0-55.4,3.8-80.3,152.9l-17.2,105.2l-68.8-145.3c-49.7-105.2-80.3-149.1-112.8-156.8c-24.8-5.7-47.8-7.7-51.6-3.8c-5.8,3.8,22.9,74.6,61.2,154.9l70.8,149.1l-116.6,116.6c-124.3,126.2-139.6,162.5-68.8,162.5c32.5,0,76.5-32.5,141.5-107.1c87.9-99.4,97.5-103.2,109-65c7.6,22.9,7.6,78.4,0,124.3c-9.6,76.5-7.6,84.1,32.5,89.9c24.9,3.8,45.9,5.7,47.8,5.7C5684.4-3024,5705.4-3134.9,5726.5-3272.5z"/><path d="M7200.5-2335.7c-22.9-28.7-40.1-66.9-40.1-88c0-99.4,135.7-244.7,229.4-244.7c30.6,0,76.5,19.1,103.2,44l49.7,42.1l-130,147.2c-70.7,80.3-137.7,147.2-151,147.2C7250.2-2286,7221.5-2309,7200.5-2335.7z"/><path d="M6797.1-2647.4c-65-53.5-65-53.5-32.5-105.1c38.2-59.3,80.3-63.1,151-15.3l53.5,34.4l-49.7,70.7c-24.9,38.2-49.7,70.7-51.6,70.7C6864-2591.9,6833.4-2616.8,6797.1-2647.4z"/><path d="M6936.7-2853.8c-53.5-36.3-55.4-84.1-9.6-126.2c45.9-42.1,53.5-40.2,120.4,7.6l55.4,40.2l-40.1,55.4C7018.9-2813.7,6997.9-2809.9,6936.7-2853.8z"/><path d="M6437.7-2972.4l-61.2-32.5l93.7-103.3l91.8-105.1l-21,128.1c-11.5,68.8-24.8,131.9-30.6,135.7C6504.6-2943.7,6472.1-2953.3,6437.7-2972.4z"/></g></g>
</svg>