<?xml version="1.0" encoding="utf-8"?>
<!-- Svg Vector Icons : http://www.onlinewebfonts.com/icon -->
<!DOCTYPE svg PUBLIC "-//W3C//DTD SVG 1.1//EN" "http://www.w3.org/Graphics/SVG/1.1/DTD/svg11.dtd">
<svg version="1.1" xmlns="http://www.w3.org/2000/svg" xmlns:xlink="http://www.w3.org/1999/xlink" x="0px" y="0px" viewBox="0 0 1000 1000" enable-background="new 0 0 1000 1000" xml:space="preserve">
<metadata> Svg Vector Icons : http://www.onlinewebfonts.com/icon </metadata>
<g><g transform="translate(0.000000,512.000000) scale(0.100000,-0.100000)"><path d="M3936.1,5004.5c-811.8-88.1-1619.7-425-2259.2-942c-216.3-176.1-551.4-524.6-721.8-752.4C168.2,2249.4-90.3,928.3,240.9-346.8c384.8-1478,1533.6-2638.3,3013.5-3044.2c639.5-174.2,1372.8-195.3,2029.5-53.6c618.4,132.1,1290.4,453.8,1780.6,850.1l122.5,99.6L8328.1-3636l1141.1-1141.1l216.3,214.5l214.4,216.3L8758.9-3205.3L7617.8-2064.2l99.6,122.6c488.2,603.1,827.1,1407.2,919,2190.3c36.4,298.7,28.7,798.4-17.2,1112.4c-273.8,1864.8-1734.6,3333.3-3601.3,3616.6C4772.7,5016,4171.6,5029.4,3936.1,5004.5z M4807.2,4384.2c836.7-99.6,1577.6-461.4,2180.7-1064.5C8081.1,2224.5,8360.7,535.8,7681-861.8c-367.6-754.3-980.3-1359.4-1740.4-1717.4c-1242.6-587.8-2732.1-417.4-3823.4,434.6C765.5-1087.7,330.9,780.9,1073.8,2324.1C1761.1,3744.7,3252.6,4569.9,4807.2,4384.2z"/><path d="M4098.8,1071.9v-2115.6h248.9h248.9v2115.6v2115.6h-248.9h-248.9V1071.9z"/><path d="M4922.1,669.9v-1713.6H5171h248.9V669.9v1713.5H5171h-248.9V669.9z"/><path d="M5745.4,306.1v-1349.8h248.9h248.9V306.1v1349.8h-248.9h-248.9V306.1z"/><path d="M3275.5,76.3v-1120h248.9h248.9v1120v1120h-248.9h-248.9V76.3z"/><path d="M2459.9,489.9c-3.8-3.8-7.7-352.3-7.7-771.6v-762h248.9h248.9v765.8V488l-42.1,1.9C2743.3,495.6,2467.6,495.6,2459.9,489.9z"/></g></g>
</svg>