<?xml version="1.0" encoding="utf-8"?>
<!-- Svg Vector Icons : http://www.onlinewebfonts.com/icon -->
<!DOCTYPE svg PUBLIC "-//W3C//DTD SVG 1.1//EN" "http://www.w3.org/Graphics/SVG/1.1/DTD/svg11.dtd">
<svg version="1.1" xmlns="http://www.w3.org/2000/svg" xmlns:xlink="http://www.w3.org/1999/xlink" x="0px" y="0px" viewBox="0 0 1000 1000" enable-background="new 0 0 1000 1000" xml:space="preserve">
<metadata> Svg Vector Icons : http://www.onlinewebfonts.com/icon </metadata>
<g><g transform="translate(0.000000,512.000000) scale(0.100000,-0.100000)"><path d="M2730.7,4995.6c-70.9-32.6-134.1-99.6-160.9-170.4c-13.4-32.6-21.1-243.2-21.1-540v-486.4L2162,3793c-367.7-5.7-394.5-7.7-484.5-53.6c-122.6-59.4-237.5-176.2-298.7-296.8c-44-90-46-116.8-51.7-482.6l-5.8-386.8l-515.1-5.8c-484.5-5.7-517.1-7.7-566.8-46c-101.5-74.7-132.1-136-132.1-256.6c0-120.6,30.6-181.9,132.1-256.6c49.8-38.3,82.3-40.2,568.8-46l515.1-5.7v-409.8V1135H817.6c-490.2,0-505.6-1.9-566.8-42.1c-147.5-101.5-191.5-266.2-111.1-406C225.9,539.4,250.8,531.7,821.5,526l501.7-5.8V120v-400.2L821.5-286c-570.7-5.7-595.6-13.4-681.7-160.8c-80.4-139.8-36.4-304.5,111.1-406C312.1-893,327.4-895,817.6-895h505.6v-411.7v-409.8l-515.1-5.7c-486.4-5.7-519-7.7-568.8-46c-101.5-74.7-132.1-136-132.1-256.6c0-120.6,30.6-181.9,132.1-256.6c49.8-38.3,82.3-40.2,566.8-45.9l515.1-5.7l5.8-386.8c5.7-365.8,7.7-392.6,53.6-482.6c59.4-122.6,174.3-237.5,296.8-296.8c90-46,116.8-47.9,482.6-53.6l386.8-5.7l5.7-515.1c5.7-484.5,7.7-517.1,46-566.8c74.7-99.6,136-132.1,254.7-132.1c90,0,122.6,9.6,178.1,51.7c124.5,95.8,130.2,126.4,130.2,674.1v490.2h411.7H3985v-503.6c0-452,3.8-509.4,36.4-568.8c40.2-76.6,170.4-153.2,256.6-153.2c91.9,0,218.3,70.9,266.2,149.4c42.1,69,44,88.1,49.8,574.5l5.7,501.7h402.2h400.2v-482.6c0-430.9,3.8-494.1,36.4-563c53.6-116.8,139.8-170.4,273.8-170.4c116.8,0,180,32.6,252.8,132.1c38.3,49.8,40.2,82.3,45.9,568.7l5.7,515.1h409.8h411.7v-505.6c0-490.2,1.9-505.5,44-566.8c63.2-95.8,134.1-137.9,237.5-147.5c124.5-9.6,229.8,49.8,289.2,166.6c40.2,80.4,42.1,105.3,42.1,566.8v482.6l379.2,7.7c346.6,5.7,384.9,9.6,476.8,51.7c118.7,53.6,260.4,197.2,317.9,323.6c36.4,80.4,42.1,132.1,47.9,467.3l7.7,379.2h492.2c471.1,0,492.1,1.9,564.9,44c204.9,114.9,204.9,409.8,0,524.7c-72.8,42.1-93.8,44-566.9,44h-494.1v411.7v409.8l515.1,5.7c490.2,5.7,519,7.7,570.7,46c187.7,139.8,166.6,423.2-40.2,522.8c-74.7,38.3-114.9,40.2-563,40.2h-482.6v411.7v411.7h505.6c490.2,0,505.5,1.9,568.7,44c93.8,61.3,159,201.1,141.7,302.6c-19.2,109.2-118.7,216.4-229.8,245.1c-49.8,11.5-266.2,21.1-534.3,21.1h-451.9v400.2v402.2l503.7,5.7c568.8,5.7,593.6,13.4,679.8,160.9c80.4,139.8,36.4,304.5-111.1,406c-61.3,40.2-76.6,42.1-564.9,42.1h-503.6l-7.7,379.2c-5.7,335.1-11.5,386.8-47.9,467.3c-57.5,126.4-199.2,270-317.9,323.6c-91.9,42.1-130.2,46-476.8,51.7l-379.2,7.7v482.6c0,461.5-1.9,486.4-42.1,566.8c-59.4,116.8-164.7,176.2-289.2,166.6c-103.4-9.6-174.3-51.7-237.5-147.5c-42.1-61.3-44-76.6-44-566.8v-505.6h-411.7h-409.8l-5.7,515.1c-5.7,486.4-7.6,519-45.9,568.8c-134.1,181.9-367.7,187.7-501.7,11.5l-51.7-67L5406,4310l-5.7-513.2h-406h-406v503.6c0,490.2-1.9,503.7-44,572.6c-47.9,76.6-174.3,149.4-262.4,149.4c-86.2,0-214.5-72.8-260.4-145.5c-38.3-63.2-40.2-88.1-40.2-572.6v-507.5h-409.8h-409.8v484.5c0,540-11.5,597.5-134.1,683.7C2950.9,5018.6,2811.2,5033.9,2730.7,4995.6z M5949.9,3138c109.1-34.5,172.3-91.9,199.2-183.8c11.5-36.4,13.4-199.2,5.7-386.8c-15.3-421.3-5.7-406-296.8-427c-118.7-7.7-268.1-15.3-331.3-17.2c-63.2-1.9-126.4-9.6-137.9-17.2c-36.4-23-30.6-80.4,13.4-118.7c32.6-28.7,55.5-32.6,166.6-19.2c72.8,7.7,212.6,17.2,312.1,19.2c99.6,0,203,11.5,229.8,23c68.9,30.6,145.5,118.7,170.4,197.2c30.6,95.8,97.7,507.5,97.7,595.6c0,40.2,7.7,74.7,19.2,74.7c28.7,0,210.6-155.1,275.8-235.5c51.7-65.1,59.4-88.1,59.4-193.4c0-109.2-13.4-143.6-149.4-425.1c-206.8-427-243.2-624.3-139.8-779.4c91.9-137.9,300.6-164.7,624.3-82.4c254.7,65.1,348.5,76.6,429,49.8c111.1-36.4,174.3-128.3,220.2-317.9c21.1-91.9,34.5-174.3,28.7-181.9c-13.4-21.1-126.4,0-331.3,63.2l-181.9,53.6l-153.2-30.6l-155.1-32.5l-99.6,51.7c-120.6,59.4-160.8,63.2-208.7,9.6c-99.6-111.1,193.4-224.1,446.2-172.3c103.4,21.1,122.5,19.1,300.7-34.5c103.4-32.6,212.6-59.4,243.2-59.4c28.7,0,74.7-7.7,101.5-19.2c49.8-17.2,49.8-21.1,49.8-222.1V114.3l-118.7,11.5c-67,5.8-220.2,42.1-340.9,80.4c-275.8,88.1-486.4,105.3-670.3,57.5c-78.5-21.1-212.6-34.5-363.8-36.4c-302.6-5.7-350.4-24.9-526.6-212.6C5614.7-113.6,5593.7-129,5530.5-129c-95.7,0-160.9,36.4-260.4,143.6c-132.1,143.6-151.3,206.8-159,536.2l-5.7,287.3l220.2,11.5c166.6,7.7,241.3,19.2,312.1,49.8c49.8,23,90,49.8,90,61.3c0,9.6-23,36.4-51.7,59.4c-45.9,36.4-68.9,40.2-168.5,30.6c-373.4-36.4-363.8-36.4-390.7-3.8c-19.2,23-23,76.6-17.2,203c3.8,93.8,13.4,178.1,21.1,185.8c7.7,5.7,44.1-1.9,80.4-19.1c91.9-44.1,197.2-40.2,392.6,9.6c191.5,47.9,266.2,40.2,379.2-42.1c168.5-120.6,237.5-413.6,137.9-589.8c-57.5-103.4-126.4-145.5-294.9-183.8c-151.3-36.4-227.9-76.6-260.5-137.9c-51.7-95.7,28.7-107.2,249-38.3c266.2,82.4,407.9,185.8,501.7,360c65.1,124.5,61.3,352.4-7.7,484.5c-59.4,116.8-199.1,249-308.3,296.8c-145.5,63.2-220.2,65.1-388.8,9.6c-181.9-59.4-268.1-51.7-363.8,34.5c-122.6,105.3-132.1,139.8-136,497.9l-3.8,321.7l51.7,21.1c28.7,11.5,120.7,49.8,204.9,88.1c191.5,84.3,266.2,93.8,390.7,51.7c162.8-53.6,206.8-1.9,88.1,103.4c-88.1,76.6-203,80.4-386.8,9.6c-306.4-114.9-293-111.1-327.5-76.6c-72.8,72.8-15.3,388.8,84.3,473C5296.8,3185.9,5735.4,3203.2,5949.9,3138z M4783.6,3115.1c90-65.1,120.6-151.3,120.6-327.5c0-189.6,0-189.6-220.2-101.5c-176.2,70.9-285.3,74.7-375.3,13.4c-36.4-23-63.2-51.7-61.3-59.4c3.8-9.6,51.7-19.2,105.3-21.1c70.8-1.9,157-26.8,283.4-80.4c99.6-42.1,201.1-84.3,226-90c42.1-13.4,42.1-19.2,42.1-342.8c0-279.6-5.7-340.9-36.4-407.9c-65.1-143.6-191.5-168.5-520.9-101.5c-166.6,32.5-300.6,3.8-440.4-93.8c-114.9-80.4-216.4-227.9-233.6-344.7c-15.3-93.8,17.2-296.8,65.1-406c47.9-107.2,101.5-164.7,199.2-216.4c122.6-61.3,476.8-185.8,492.2-170.4c5.7,7.7,19.1,36.4,24.9,65.1c17.2,67-38.3,120.6-147.5,149.4c-285.3,70.9-417.5,170.4-457.7,337c-36.4,157,63.2,404.1,197.3,486.4c76.6,46,222.1,49.8,388.7,9.6c149.4-36.4,300.7-36.4,386.8,0c36.4,15.3,70.8,28.7,74.7,28.7c3.8,0,7.7-86.2,7.7-189.6c0-270-13.4-279.6-319.8-218.3l-162.8,34.5l-36.4-46c-32.5-40.2-34.5-49.8-11.5-86.2c23-34.5,65.1-46,270-72.8c134.1-17.2,249-36.4,254.7-42.1c5.7-5.8,11.5-137.9,13.4-293c1.9-327.5-23-423.2-136-522.8c-84.3-74.7-145.5-99.6-249-99.6c-101.5,0-143.6,23-283.4,157c-143.6,136-227.9,166.6-497.9,180c-114.9,5.8-287.3,24.9-383,40.2c-93.8,15.3-197.2,24.9-229.8,17.2c-30.6-5.7-212.6-44-402.1-84.3c-189.6-40.2-377.3-76.6-417.5-82.3l-72.8-11.5l5.7,204.9l5.7,204.9l101.5,13.4c57.4,9.6,164.7,36.4,239.4,61.3c206.8,68.9,235.6,72.8,388.8,46c218.3-36.4,432.8,19.2,400.2,103.4c-17.2,46-70.9,55.5-337,67c-226,9.6-254.7,7.7-473-49.8c-300.7-76.6-310.2-76.6-310.2,5.7c0,107.2,70.9,304.5,128.3,360c61.3,59.4,137.9,91.9,214.5,91.9c28.7,0,172.4-30.6,319.8-67c294.9-76.6,367.7-76.6,496,0c90,51.7,153.2,153.2,183.8,293c30.6,145.5-3.8,275.8-120.6,467.3c-166.6,273.8-185.8,310.2-216.4,432.8c-38.3,151.3-21.1,216.4,91.9,323.6c97.7,93.8,264.3,220.2,275.8,210.6c3.8-5.8,24.9-126.4,44-270c61.3-430.9,99.6-538.1,212.6-597.5c95.8-49.8,375.3-76.6,517.1-49.8c136,24.9,210.6,78.5,174.3,124.5c-23,26.8-316,61.3-469.2,55.5c-203-7.7-268.1,90-298.7,446.2c-28.7,316-26.8,323.6,28.7,392.6c109.2,130.2,273.8,174.3,624.3,166.6C4697.4,3155.3,4737.6,3149.5,4783.6,3115.1z M3121.4,2264.8c23-68.9,91.9-214.5,155.1-325.6c139.8-243.2,180-358.1,166.6-473c-11.5-105.3-68.9-170.4-174.3-199.2c-91.9-24.9-155.1-17.2-484.5,65.1c-201.1,47.9-254.7,68.9-254.7,93.8c0,49.8,91.9,287.3,132.1,339c42.1,53.6,30.6,59.4,239.4-103.4c120.7-93.8,189.6-107.2,229.8-42.1c36.4,57.5-38.3,164.7-183.8,262.4c-134.1,88.1-149.4,116.8-109.2,197.2c47.9,97.7,218.3,337,229.8,323.6C3075.4,2395,3098.4,2333.8,3121.4,2264.8z M7010.8,2320.3c57.5-80.4,191.5-312.1,191.5-331.3c0-5.8-42.1-40.2-95.7-74.7c-185.8-124.5-266.2-283.4-149.4-296.8c36.4-3.8,74.7,15.3,147.5,80.4c120.6,107.2,172.4,113,239.4,24.9c67-88.1,151.3-277.7,137.9-310.2c-5.7-15.3-28.7-28.7-49.8-28.7c-23,0-126.4-21.1-231.7-47.9c-365.8-93.8-519-80.4-605.2,46c-84.2,124.5-53.6,262.4,118.7,540c59.4,93.8,128.3,241.3,155.1,323.6c26.8,84.3,57.5,153.2,67,153.2C6945.6,2398.9,6978.2,2362.5,7010.8,2320.3z M3355,100.8c145.5-32.6,210.6-38.3,388.7-26.8c151.3,9.6,227.9,5.8,256.6-9.6c23-13.4,105.3-78.5,180-145.5c271.9-245.1,394.5-256.6,670.3-63.2c17.2,13.4,36.4,19.2,40.2,15.3c17.2-19.1,32.6-432.8,17.2-455.8c-13.4-21.1-40.2-17.2-134.1,13.4c-153.2,51.7-237.5,49.8-419.4-7.7c-260.4-82.3-337-59.4-442.4,134c-28.7,51.7-74.7,107.2-103.4,124.5c-47.9,24.9-55.5,24.9-84.3-3.8c-44-42.1-26.8-97.7,80.4-260.4C3950.6-803,4073.1-841.3,4341.2-759c151.3,47.9,340.9,53.6,419.4,15.3c107.2-53.6,126.4-103.4,143.6-392.6c11.5-164.7,9.6-271.9,0-287.2c-11.5-11.5-99.6-26.8-199.2-34.5c-222.1-15.3-325.6-49.8-417.5-139.8c-201.1-195.3-97.7-333.2,113-149.4c53.6,47.9,116.8,93.8,141.7,103.4c82.3,30.6,273.8,44,329.4,23c49.8-19.1,51.7-24.9,49.8-158.9c0-76.6-5.7-174.3-13.4-216.4l-13.4-74.7l-279.6-90c-421.3-136-394.5-136-530.4-11.5c-91.9,86.2-132.1,109.2-203,118.7c-90,13.4-145.5,3.8-145.5-24.9c0-9.6,44-46,95.8-82.3c53.6-36.4,118.7-101.5,143.6-143.6c132.1-224.1,250.9-233.6,576.4-49.8c114.9,65.1,226,118.7,249,118.7c21.1,0,55.5-19.2,76.6-40.2c51.7-59.4,49.8-398.3-3.8-507.5c-95.7-195.3-474.9-212.6-873.2-38.3c-187.7,82.3-499.8,287.3-654.9,432.8c-208.7,197.2-285.3,413.6-212.6,603.2c46,120.6,99.6,145.5,319.8,141.7c212.6-1.9,258.5,13.4,354.3,118.7c176.2,197.3,181.9,201.1,312.1,226c183.8,36.4,321.7,76.6,335.1,97.7c21.1,34.5-26.8,90-86.2,101.5c-74.7,15.3-367.7-34.5-473-82.3c-65.1-28.7-99.6-63.2-160.9-160.9c-93.8-149.4-128.3-164.7-386.8-164.7h-189.6l-72.8-72.8c-67-67-91.9-122.6-124.5-279.6l-11.5-55.5l-47.9,45.9c-118.7,111.1-365.8,540-438.5,762.2c-57.4,178.1-44,390.6,26.8,413.6c19.2,5.7,111.1-7.7,203-30.6c155.1-38.3,170.4-40.2,229.8-11.5c57.5,26.8,70.9,49.8,118.7,199.2c34.5,111.1,65.1,170.4,84.3,174.3c88.1,15.3,245.1-235.5,252.8-400.2c3.8-101.5-44-141.7-181.9-160.9c-132.1-17.2-180-44-275.8-149.4c-42.1-46-90-90-105.3-95.8c-42.1-17.2,17.2-51.7,88.1-51.7s503.6,212.6,566.8,279.6c99.6,107.2,55.5,417.5-84.3,574.5c-74.7,88.1-145.5,122.6-245.1,122.6c-68.9,0-91.9-11.5-162.8-84.3c-57.5-55.5-84.3-99.6-84.3-134.1c0-45.9-57.5-126.4-90-126.4c-9.6,1.9-70.8,13.4-139.8,28.7c-114.9,23-132.1,23-237.5-11.5c-61.3-21.1-114.9-34.5-120.6-30.7c-11.5,13.4-59.4,314.1-65.1,423.2l-5.7,93.8l419.4,111.1c231.7,59.4,444.3,111.1,474.9,111.1C3157.8,139.2,3259.3,121.9,3355,100.8z M7223.3,41.5c159-57.5,262.4-82.4,381.1-90l162.8-13.4l5.7-76.6c5.7-68.9-47.9-448.1-65.1-467.3c-3.8-5.7-32.6,15.3-61.3,42.1c-67,65.1-122.6,65.1-279.6,1.9c-181.9-76.6-233.6-49.8-270,136c-23,111.1-53.6,164.7-107.2,191.5c-70.9,38.3-180,36.4-245.1-1.9c-128.3-76.6-250.9-354.3-250.9-570.7c0-174.3,61.3-241.3,252.8-270c51.7-7.7,134.1-42.1,191.5-78.5c55.5-36.4,114.9-70.9,134.1-76.6c36.4-11.5,143.6,32.5,134.1,55.5c-1.9,5.7-59.4,65.1-126.4,126.4c-90,84.2-141.7,116.8-197.2,126.4c-40.2,7.7-107.2,23-149.4,34.5c-90,26.8-101.5,65.1-67,224.1c30.6,137.9,84.3,241.3,145.5,281.5c44.1,28.7,55.5,28.7,99.6,3.8c38.3-21.1,55.5-55.5,80.4-155.1c36.4-149.4,57.5-178.1,147.5-208.7c63.2-19.2,97.7-19.2,294.9,13.4c59.4,9.6,74.7,3.8,101.5-32.5c120.6-174.3-124.5-808.1-425.1-1095.4l-55.5-53.6l-11.5,95.8c-13.4,109.1-65.1,222.1-134.1,285.3c-72.8,68.9-170.4,82.3-327.5,49.8c-189.6-40.2-224-26.8-348.5,128.3c-57.5,72.8-124.5,145.5-149.4,160.9c-65.1,44-245.1,101.5-361.9,114.9c-91.9,11.5-111.1,7.7-145.5-26.8c-23-23-40.2-47.9-40.2-57.4c0-36.4,59.4-76.6,130.2-90c363.8-61.3,413.7-86.2,501.7-252.8c86.2-164.7,132.1-183.9,375.3-170.4c227.9,15.3,281.5,0,325.6-84.2c44.1-88.1,30.7-304.5-28.7-425.1c-157-323.6-704.7-662.6-1193-741.1c-239.4-38.3-434.7,24.9-519,168.5c-51.7,88.1-67,333.2-26.8,430.9c28.7,67,36.4,70.9,114.9,70.9c70.9,0,111.1-17.2,235.6-99.6c214.5-139.8,279.6-160.8,384.9-120.6c61.3,24.9,111.1,67,187.7,162.8c86.2,109.2,120.6,136,201.1,162.8c113,38.3,122.6,74.7,26.8,105.3c-130.2,44-157,32.6-283.4-101.5c-63.2-69-139.8-132.1-168.5-137.9c-51.7-13.4-147.4,23-340.9,134c-59.4,32.6-114.9,47.9-181.9,47.9c-189.6,0-183.8-7.7-178.1,247l5.7,222.1l174.3-1.9c203-3.8,256.6-24.9,367.7-151.3c78.5-88.1,113-103.4,153.2-63.2c70.9,70.9-9.6,243.2-149.4,321.7c-74.7,42.1-114.9,47.9-310.2,53.6c-160.8,5.7-231.7,15.3-247,34.5c-13.4,17.2-19.2,101.5-15.3,250.9c5.7,181.9,15.3,241.3,47.9,300.7c78.5,153.2,206.8,199.2,419.4,153.2c386.8-84.3,448.1-78.5,566.8,38.3c61.3,61.3,208.7,300.6,208.7,338.9c0,28.7-90,40.2-132.1,19.2c-21.1-11.5-63.2-63.2-90-113c-124.5-216.4-170.4-231.7-461.5-137.9c-210.6,67-258.5,70.9-388.7,19.2c-158.9-63.2-153.2-72.8-153.2,220.2v260.4l103.4-78.5c229.8-174.3,390.7-155.1,643.4,72.8c68.9,61.3,153.2,122.6,189.6,134.1c36.4,13.4,145.5,23,245.1,23c99.6,0,241.3,11.5,317.9,26.8c76.6,15.3,158.9,32.5,185.8,38.3C6874.8,144.9,7008.8,118.1,7223.3,41.5z"/></g></g>
</svg>