<?xml version="1.0" encoding="utf-8"?>
<!-- Svg Vector Icons : http://www.onlinewebfonts.com/icon -->
<!DOCTYPE svg PUBLIC "-//W3C//DTD SVG 1.1//EN" "http://www.w3.org/Graphics/SVG/1.1/DTD/svg11.dtd">
<svg version="1.1" xmlns="http://www.w3.org/2000/svg" xmlns:xlink="http://www.w3.org/1999/xlink" x="0px" y="0px" viewBox="0 0 1000 1000" enable-background="new 0 0 1000 1000" xml:space="preserve">
<metadata> Svg Vector Icons : http://www.onlinewebfonts.com/icon </metadata>
<g><g transform="translate(0.000000,512.000000) scale(0.100000,-0.100000)"><path d="M4685,4541.5V4063h-1292h-1292v-633.6v-635.5l-95.7,90c-80.4,74.6-105.3,88-174.2,88c-111,0-199.1-61.3-287.1-197.1c-327.3-505.3-325.4-1745.6,0-2226.1c101.4-149.3,162.7-189.5,283.3-189.5c91.9,0,105.3,5.7,187.6,86.1l86.1,84.2v-702.4v-702.5h2909.4h2909.4v694.8c1.9,616.3,3.8,689.1,28.7,654.6c70.8-95.7,153.1-162.7,212.5-174.2c158.9-28.7,340.7,181.8,434.5,509.1c170.4,597.2,130.1,1437.5-91.9,1887.3c-153.1,313.9-361.8,365.6-528.3,134l-55.5-74.6v652.7V4063H6618.2H5316.7v478.5V5020h-315.8H4685V4541.5z M3655.3,2652.3c191.4-67,361.8-239.3,436.4-440.2c59.3-156.9,49.8-392.4-23-545.5c-141.6-302.4-472.8-478.5-786.7-417.3c-480.4,93.8-736.9,587.6-532.1,1027.9C2908.8,2615.9,3299.3,2778.6,3655.3,2652.3z M6849.8,2646.6c120.6-45.9,266.1-153.1,329.2-243.1c105.3-153.1,135.9-252.7,137.8-436.4c0-155-5.7-185.7-61.3-300.5c-216.3-459.4-786.7-574.2-1154.2-231.6c-187.6,172.3-266,396.2-225.8,645c45.9,296.7,279.4,543.6,576.1,604.8C6558.9,2707.8,6736.9,2690.6,6849.8,2646.6z M6005.7,474.1V158.3h-995.3h-995.3v315.8v315.8h995.3h995.3V474.1z"/><path d="M1136.4-1365.3c-379-91.9-706.3-426.9-786.7-805.8c-28.7-134-38.3-312-17.2-312c7.7,0,204.8,97.6,442.1,218.2l428.7,218.2l153.1-306.3c84.2-168.4,147.4-313.9,137.8-321.6c-7.7-7.7-212.5-116.7-453.6-239.2l-436.4-225.9l72.7-65.1c260.3-223.9,633.6-321.5,953.2-246.9c377.1,89.9,685.2,382.8,788.6,750.3l32.5,116.8l279.5,61.3c153.1,34.5,298.6,67,323.5,72.7l42.1,9.6v-652.7v-650.8l-874.7-5.7c-857.5-5.8-878.5-5.8-953.2-47.9C945-3972.2,891.4-4418.2,1167-4653.7c151.2-130.1,109.1-126.3,1558-126.3c1272.8,0,1311.1,1.9,1412.6,40.2c124.4,46,260.3,183.8,294.8,300.5c30.6,103.4,28.7,258.4-5.7,342.6c-15.3,36.3-28.7,70.8-28.7,74.6c0,3.8,268,7.7,595.3,7.7h595.3l-11.5-53.6c-40.2-166.5-45.9-212.5-28.7-294.8c21-120.6,55.5-181.8,145.5-266c158.9-151.2,42.1-141.6,1575.3-141.6h1368.6l93.8,47.9c365.6,185.7,373.2,702.5,15.3,914.9l-90,51.7l-870.9,9.6l-870.9,9.6l-5.7,648.9l-3.8,647l42.1-9.6c24.9-5.7,170.3-38.3,323.5-72.7l279.5-61.3l32.5-116.8c49.8-174.2,141.6-329.2,271.8-461.3c321.6-321.6,798.2-403.9,1205.9-208.7c126.3,59.4,336.9,222.1,313.9,241.2c-5.7,5.7-202.9,107.2-438.3,227.8c-235.4,120.6-430.7,227.8-434.5,237.4c-5.8,11.5,61.2,155,145.5,319.6l155,300.5l137.8-72.8c375.2-199,706.3-365.6,725.4-365.6c13.4,0,17.2,46,9.6,139.7c-51.7,601-537.9,1037.4-1123.6,1003c-356-19.1-656.5-197.1-861.3-509.2l-30.6-45.9l-371.3,84.2l-373.2,86.1l-5.7,185.7l-5.7,185.7H5000.9H3098.3l-5.7-185.7l-5.7-187.6l-354.1-80.4c-195.2-44-363.7-80.4-373.2-82.3c-11.5,0-57.4,51.7-105.3,116.7C2003.4-1428.5,1553.6-1263.9,1136.4-1365.3z"/></g></g>
</svg>