<?xml version="1.0" encoding="utf-8"?>
<!-- Svg Vector Icons : http://www.onlinewebfonts.com/icon -->
<!DOCTYPE svg PUBLIC "-//W3C//DTD SVG 1.1//EN" "http://www.w3.org/Graphics/SVG/1.1/DTD/svg11.dtd">
<svg version="1.1" xmlns="http://www.w3.org/2000/svg" xmlns:xlink="http://www.w3.org/1999/xlink" x="0px" y="0px" viewBox="0 0 1000 1000" enable-background="new 0 0 1000 1000" xml:space="preserve">
<metadata> Svg Vector Icons : http://www.onlinewebfonts.com/icon </metadata>
<g><g transform="translate(0.000000,511.000000) scale(0.100000,-0.100000)"><path d="M9154,3870.6c-19.1-23.9-155.4-327.6-303.7-676.7l-267.8-633.6l2.4-2871.6c0-3086.8-4.8-2967.3,119.6-3139.4c86.1-121.9,174.5-145.8,545.1-145.8c306.1,0,339.5,4.8,413.6,55c107.6,71.7,179.3,184.1,210.4,330c19.1,81.3,26.3,1018.6,26.3,2936.2v2816.6l-162.6,380.2c-90.9,208-217.6,502.1-279.8,650.4c-64.6,150.6-131.5,286.9-148.2,306.1C9261.6,3923.2,9197,3920.8,9154,3870.6z M9278.3,3404.3c0-12-21.5-19.1-47.8-19.1c-43,0-45.4,7.2-21.5,50.2c21.5,40.6,31.1,45.4,47.8,19.1C9268.8,3435.4,9278.3,3413.9,9278.3,3404.3z M9510.3,2880.7l121.9-282.1l-129.1-16.7c-141.1-16.7-619.3-4.8-640.8,16.7c-7.2,7.2,28.7,114.8,83.7,239.1c55,124.3,107.6,248.7,117.2,275c19.1,45.4,38.3,50.2,174.5,50.2l153-2.4L9510.3,2880.7z M9230.5,2345.1c165,0,327.6,9.6,365.8,19.1l64.6,16.7V-261.1v-2642.1h-430.4h-430.4v2642.1V2381l66.9-16.7C8902.9,2354.6,9065.5,2345.1,9230.5,2345.1z M9660.9-3130.4c0-47.8-86.1-208-121.9-227.1c-23.9-14.3-165-23.9-315.6-23.9h-275l-62.2,74.1c-33.5,40.6-62.2,98-62.2,131.5v57.4h418.4C9472-3118.4,9660.9-3123.2,9660.9-3130.4z"/><path d="M491.3,3806c-157.8-71.7-313.2-248.7-358.7-408.9c-31.1-105.2-35.9-459.1-31.1-2632.5l7.2-2508.2l71.7-129.1c38.3-69.4,117.2-165,176.9-208c196.1-150.6,220-153,1513.5-153h1166.8v-334.7v-334.7h-451.9c-428,0-454.3-2.4-530.8-55c-251.1-167.4-258.2-492.6-14.4-671.9c67-50.2,81.3-50.2,2008.5-57.4c2168.7-7.2,2080.2-12,2211.7,157.8c55,71.7,64.6,107.6,64.6,234.3c0,162.6-35.9,234.3-165,330c-59.8,45.4-105.2,50.2-530.8,57.4l-463.9,7.2v332.3v332.4l1214.6,7.2c1104.6,7.2,1219.4,12,1303.1,50.2c138.7,64.6,291.7,220,353.9,358.7l57.4,124.3V826.8v2522.5l-52.6,112.4c-28.7,62.2-100.4,160.2-160.2,220c-203.2,196.1,95.6,181.7-3801.7,181.7H610.9L491.3,3806z M7556.8,3624.3c95.6-26.3,248.7-169.8,284.5-270.2c19.1-45.4,26.3-856,26.3-2532.1v-2467.5l-50.2-105.2c-35.9-69.4-88.5-129.1-160.2-174.5l-110-69.3H4111.3c-2371.9,0-3457.4,7.2-3505.2,26.3c-35.9,12-98,52.6-133.9,88.5c-126.7,119.6-145.8,184.1-155.4,526l-9.6,315.6h3371.3c2132.8,0,3395.2,9.6,3433.5,23.9c47.8,16.7,62.2,40.7,62.2,90.8c0,35.9-12,78.9-28.7,95.6c-21.5,21.5-817.7,28.7-3431.1,28.7H312v2003.7c0,1372.5,9.6,2032.4,26.3,2096.9c35.9,133.9,129.1,248.7,246.3,301.3c93.2,43,229.5,45.4,3493.3,45.4C6227.4,3648.2,7504.2,3638.6,7556.8,3624.3z M4926.7-2568.5v-334.7h-836.9H3253v334.7v334.7h836.9h836.9V-2568.5z M6076.8-3187.7c23.9-31.1,45.4-71.7,45.4-90.9c0-43-45.4-133.9-81.3-155.4c-14.4-9.6-894.2-19.1-1955.9-19.1H2155.5l-35.9,52.6c-52.6,76.5-47.8,155.4,16.7,217.6l52.6,52.6h1922.4h1920L6076.8-3187.7z"/><path d="M3946.4-1129.1c-270.2-119.6-320.4-504.5-88.5-674.3c131.5-95.6,341.9-98,468.7-7.2c74.1,55,169.8,231.9,169.8,318c0,95.6-100.4,270.2-188.9,327.6C4226.1-1110,4032.4-1090.8,3946.4-1129.1z M4209.4-1373c98-98,28.7-286.9-107.6-286.9c-71.7,0-179.3,98-179.3,162.6C3922.4-1356.2,4111.3-1274.9,4209.4-1373z"/></g></g>
</svg>